solid bracket
  facet normal 0.0000 0.0000 1.0000
    outer loop
      vertex 0.0000 0.0000 0.0000
      vertex 40.0000 0.0000 0.0000
      vertex 40.0000 10.0000 0.0000
    endloop
  endfacet
  facet normal 0.0000 0.0000 1.0000
    outer loop
      vertex 0.0000 0.0000 0.0000
      vertex 40.0000 10.0000 0.0000
      vertex 10.0000 10.0000 0.0000
    endloop
  endfacet
  facet normal 0.0000 0.0000 1.0000
    outer loop
      vertex 0.0000 0.0000 0.0000
      vertex 10.0000 10.0000 0.0000
      vertex 10.0000 40.0000 0.0000
    endloop
  endfacet
  facet normal 0.0000 0.0000 1.0000
    outer loop
      vertex 0.0000 0.0000 0.0000
      vertex 10.0000 40.0000 0.0000
      vertex 0.0000 40.0000 0.0000
    endloop
  endfacet
  facet normal 0.0000 0.0000 -1.0000
    outer loop
      vertex 40.0000 10.0000 10.0000
      vertex 40.0000 0.0000 10.0000
      vertex 0.0000 0.0000 10.0000
    endloop
  endfacet
  facet normal 0.0000 0.0000 -1.0000
    outer loop
      vertex 10.0000 10.0000 10.0000
      vertex 40.0000 10.0000 10.0000
      vertex 0.0000 0.0000 10.0000
    endloop
  endfacet
  facet normal 0.0000 0.0000 -1.0000
    outer loop
      vertex 10.0000 40.0000 10.0000
      vertex 10.0000 10.0000 10.0000
      vertex 0.0000 0.0000 10.0000
    endloop
  endfacet
  facet normal 0.0000 0.0000 -1.0000
    outer loop
      vertex 0.0000 40.0000 10.0000
      vertex 10.0000 40.0000 10.0000
      vertex 0.0000 0.0000 10.0000
    endloop
  endfacet
  facet normal 0.0000 -1.0000 0.0000
    outer loop
      vertex 0.0000 0.0000 0.0000
      vertex 40.0000 0.0000 0.0000
      vertex 40.0000 0.0000 10.0000
    endloop
  endfacet
  facet normal 0.0000 -1.0000 0.0000
    outer loop
      vertex 0.0000 0.0000 0.0000
      vertex 40.0000 0.0000 10.0000
      vertex 0.0000 0.0000 10.0000
    endloop
  endfacet
  facet normal 1.0000 0.0000 0.0000
    outer loop
      vertex 40.0000 0.0000 0.0000
      vertex 40.0000 10.0000 0.0000
      vertex 40.0000 10.0000 10.0000
    endloop
  endfacet
  facet normal 1.0000 0.0000 0.0000
    outer loop
      vertex 40.0000 0.0000 0.0000
      vertex 40.0000 10.0000 10.0000
      vertex 40.0000 0.0000 10.0000
    endloop
  endfacet
  facet normal 0.0000 1.0000 0.0000
    outer loop
      vertex 40.0000 10.0000 0.0000
      vertex 10.0000 10.0000 0.0000
      vertex 10.0000 10.0000 10.0000
    endloop
  endfacet
  facet normal 0.0000 1.0000 0.0000
    outer loop
      vertex 40.0000 10.0000 0.0000
      vertex 10.0000 10.0000 10.0000
      vertex 40.0000 10.0000 10.0000
    endloop
  endfacet
  facet normal 1.0000 0.0000 0.0000
    outer loop
      vertex 10.0000 10.0000 0.0000
      vertex 10.0000 40.0000 0.0000
      vertex 10.0000 40.0000 10.0000
    endloop
  endfacet
  facet normal 1.0000 0.0000 0.0000
    outer loop
      vertex 10.0000 10.0000 0.0000
      vertex 10.0000 40.0000 10.0000
      vertex 10.0000 10.0000 10.0000
    endloop
  endfacet
  facet normal 0.0000 1.0000 0.0000
    outer loop
      vertex 10.0000 40.0000 0.0000
      vertex 0.0000 40.0000 0.0000
      vertex 0.0000 40.0000 10.0000
    endloop
  endfacet
  facet normal 0.0000 1.0000 0.0000
    outer loop
      vertex 10.0000 40.0000 0.0000
      vertex 0.0000 40.0000 10.0000
      vertex 10.0000 40.0000 10.0000
    endloop
  endfacet
  facet normal -1.0000 0.0000 0.0000
    outer loop
      vertex 0.0000 40.0000 0.0000
      vertex 0.0000 0.0000 0.0000
      vertex 0.0000 0.0000 10.0000
    endloop
  endfacet
  facet normal -1.0000 0.0000 0.0000
    outer loop
      vertex 0.0000 40.0000 0.0000
      vertex 0.0000 0.0000 10.0000
      vertex 0.0000 40.0000 10.0000
    endloop
  endfacet
endsolid bracket
